ply
format ascii 1.0
comment Created by Blender 2.83.3 - www.blender.org, source file: 'camera.blend'
element vertex 216
property float x
property float y
property float z
property float nx
property float ny
property float nz
property float s
property float t
element face 130
property list uchar uint vertex_indices
end_header
0.022500 0.019000 0.016000 0.000000 -0.000000 1.000000 0.625000 0.500000
-0.022500 0.019000 0.016000 0.000000 -0.000000 1.000000 0.875000 0.500000
-0.022500 -0.019000 0.016000 0.000000 -0.000000 1.000000 0.875000 0.750000
0.022500 -0.019000 0.016000 0.000000 -0.000000 1.000000 0.625000 0.750000
0.022500 -0.019000 -0.016000 0.000000 -1.000000 0.000000 0.375000 0.750000
0.022500 -0.019000 0.016000 0.000000 -1.000000 0.000000 0.625000 0.750000
-0.022500 -0.019000 0.016000 0.000000 -1.000000 0.000000 0.625000 1.000000
-0.022500 -0.019000 -0.016000 0.000000 -1.000000 0.000000 0.375000 1.000000
-0.022500 -0.019000 -0.016000 -1.000000 -0.000000 0.000000 0.375000 0.000000
-0.022500 -0.019000 0.016000 -1.000000 -0.000000 0.000000 0.625000 0.000000
-0.022500 0.019000 0.016000 -1.000000 -0.000000 0.000000 0.625000 0.250000
-0.022500 0.019000 -0.016000 -1.000000 -0.000000 0.000000 0.375000 0.250000
-0.022500 0.019000 -0.016000 0.000000 0.000000 -1.000000 0.125000 0.500000
0.022500 0.019000 -0.016000 0.000000 0.000000 -1.000000 0.375000 0.500000
0.022500 -0.019000 -0.016000 0.000000 0.000000 -1.000000 0.375000 0.750000
-0.022500 -0.019000 -0.016000 0.000000 0.000000 -1.000000 0.125000 0.750000
0.022500 0.019000 -0.016000 1.000000 -0.000000 0.000000 0.375000 0.500000
0.022500 0.019000 0.016000 1.000000 -0.000000 0.000000 0.625000 0.500000
0.022500 -0.019000 0.016000 1.000000 -0.000000 0.000000 0.625000 0.750000
0.022500 -0.019000 -0.016000 1.000000 -0.000000 0.000000 0.375000 0.750000
-0.022500 0.019000 -0.016000 0.000000 1.000000 0.000000 0.375000 0.250000
-0.022500 0.019000 0.016000 0.000000 1.000000 0.000000 0.625000 0.250000
0.022500 0.019000 0.016000 0.000000 1.000000 0.000000 0.625000 0.500000
0.022500 0.019000 -0.016000 0.000000 1.000000 0.000000 0.375000 0.500000
0.000000 0.017152 0.047152 0.098017 0.995185 0.000000 1.000000 1.000000
0.003346 0.016822 0.012848 0.098017 0.995185 0.000000 0.968750 0.500000
0.000000 0.017152 0.012848 0.098017 0.995185 0.000000 1.000000 0.500000
0.003346 0.016822 0.047152 0.290285 0.956940 0.000000 0.968750 1.000000
0.006564 0.015846 0.012848 0.290285 0.956940 0.000000 0.937500 0.500000
0.003346 0.016822 0.012848 0.290285 0.956940 0.000000 0.968750 0.500000
0.006564 0.015846 0.047152 0.471397 0.881921 0.000000 0.937500 1.000000
0.009529 0.014261 0.012848 0.471397 0.881921 0.000000 0.906250 0.500000
0.006564 0.015846 0.012848 0.471397 0.881921 0.000000 0.937500 0.500000
0.009529 0.014261 0.047152 0.634393 0.773010 0.000000 0.906250 1.000000
0.012128 0.012128 0.012848 0.634393 0.773010 0.000000 0.875000 0.500000
0.009529 0.014261 0.012848 0.634393 0.773010 0.000000 0.906250 0.500000
0.012128 0.012128 0.047152 0.773010 0.634393 0.000000 0.875000 1.000000
0.014261 0.009529 0.012848 0.773010 0.634393 0.000000 0.843750 0.500000
0.012128 0.012128 0.012848 0.773010 0.634393 0.000000 0.875000 0.500000
0.014261 0.009529 0.047152 0.881921 0.471396 0.000000 0.843750 1.000000
0.015846 0.006564 0.012848 0.881921 0.471396 0.000000 0.812500 0.500000
0.014261 0.009529 0.012848 0.881921 0.471396 0.000000 0.843750 0.500000
0.015846 0.006564 0.047152 0.956940 0.290285 0.000000 0.812500 1.000000
0.016822 0.003346 0.012848 0.956940 0.290285 0.000000 0.781250 0.500000
0.015846 0.006564 0.012848 0.956940 0.290285 0.000000 0.812500 0.500000
0.016822 0.003346 0.047152 0.995185 0.098017 0.000000 0.781250 1.000000
0.017152 0.000000 0.012848 0.995185 0.098017 0.000000 0.750000 0.500000
0.016822 0.003346 0.012848 0.995185 0.098017 0.000000 0.781250 0.500000
0.017152 0.000000 0.047152 0.995185 -0.098017 0.000000 0.750000 1.000000
0.016822 -0.003346 0.012848 0.995185 -0.098017 0.000000 0.718750 0.500000
0.017152 0.000000 0.012848 0.995185 -0.098017 0.000000 0.750000 0.500000
0.016822 -0.003346 0.047152 0.956940 -0.290285 0.000000 0.718750 1.000000
0.015846 -0.006564 0.012848 0.956940 -0.290285 0.000000 0.687500 0.500000
0.016822 -0.003346 0.012848 0.956940 -0.290285 0.000000 0.718750 0.500000
0.015846 -0.006564 0.047152 0.881921 -0.471397 0.000000 0.687500 1.000000
0.014261 -0.009529 0.012848 0.881921 -0.471397 0.000000 0.656250 0.500000
0.015846 -0.006564 0.012848 0.881921 -0.471397 0.000000 0.687500 0.500000
0.014261 -0.009529 0.047152 0.773010 -0.634393 0.000000 0.656250 1.000000
0.012128 -0.012128 0.012848 0.773010 -0.634393 0.000000 0.625000 0.500000
0.014261 -0.009529 0.012848 0.773010 -0.634393 0.000000 0.656250 0.500000
0.012128 -0.012128 0.047152 0.634393 -0.773010 0.000000 0.625000 1.000000
0.009529 -0.014261 0.012848 0.634393 -0.773010 0.000000 0.593750 0.500000
0.012128 -0.012128 0.012848 0.634393 -0.773010 0.000000 0.625000 0.500000
0.009529 -0.014261 0.047152 0.471397 -0.881921 0.000000 0.593750 1.000000
0.006564 -0.015846 0.012848 0.471397 -0.881921 0.000000 0.562500 0.500000
0.009529 -0.014261 0.012848 0.471397 -0.881921 0.000000 0.593750 0.500000
0.006564 -0.015846 0.047152 0.290285 -0.956940 0.000000 0.562500 1.000000
0.003346 -0.016822 0.012848 0.290285 -0.956940 0.000000 0.531250 0.500000
0.006564 -0.015846 0.012848 0.290285 -0.956940 0.000000 0.562500 0.500000
0.003346 -0.016822 0.047152 0.098017 -0.995185 0.000000 0.531250 1.000000
-0.000000 -0.017152 0.012848 0.098017 -0.995185 0.000000 0.500000 0.500000
0.003346 -0.016822 0.012848 0.098017 -0.995185 0.000000 0.531250 0.500000
-0.000000 -0.017152 0.047152 -0.098017 -0.995185 0.000000 0.500000 1.000000
-0.003346 -0.016822 0.012848 -0.098017 -0.995185 0.000000 0.468750 0.500000
-0.000000 -0.017152 0.012848 -0.098017 -0.995185 0.000000 0.500000 0.500000
-0.003346 -0.016822 0.047152 -0.290285 -0.956940 0.000000 0.468750 1.000000
-0.006564 -0.015846 0.012848 -0.290285 -0.956940 0.000000 0.437500 0.500000
-0.003346 -0.016822 0.012848 -0.290285 -0.956940 0.000000 0.468750 0.500000
-0.006564 -0.015846 0.047152 -0.471397 -0.881921 0.000000 0.437500 1.000000
-0.009529 -0.014261 0.012848 -0.471397 -0.881921 0.000000 0.406250 0.500000
-0.006564 -0.015846 0.012848 -0.471397 -0.881921 0.000000 0.437500 0.500000
-0.009529 -0.014261 0.047152 -0.634394 -0.773010 0.000000 0.406250 1.000000
-0.012128 -0.012128 0.012848 -0.634394 -0.773010 0.000000 0.375000 0.500000
-0.009529 -0.014261 0.012848 -0.634394 -0.773010 0.000000 0.406250 0.500000
-0.012128 -0.012128 0.047152 -0.773011 -0.634393 0.000000 0.375000 1.000000
-0.014261 -0.009529 0.012848 -0.773011 -0.634393 0.000000 0.343750 0.500000
-0.012128 -0.012128 0.012848 -0.773011 -0.634393 0.000000 0.375000 0.500000
-0.014261 -0.009529 0.047152 -0.881922 -0.471396 0.000000 0.343750 1.000000
-0.015846 -0.006564 0.012848 -0.881922 -0.471396 0.000000 0.312500 0.500000
-0.014261 -0.009529 0.012848 -0.881922 -0.471396 0.000000 0.343750 0.500000
-0.015846 -0.006564 0.047152 -0.956941 -0.290284 0.000000 0.312500 1.000000
-0.016822 -0.003346 0.012848 -0.956941 -0.290284 0.000000 0.281250 0.500000
-0.015846 -0.006564 0.012848 -0.956941 -0.290284 0.000000 0.312500 0.500000
-0.016822 -0.003346 0.047152 -0.995185 -0.098016 0.000000 0.281250 1.000000
-0.017152 0.000000 0.012848 -0.995185 -0.098016 0.000000 0.250000 0.500000
-0.016822 -0.003346 0.012848 -0.995185 -0.098016 0.000000 0.281250 0.500000
-0.017152 0.000000 0.047152 -0.995185 0.098018 0.000000 0.250000 1.000000
-0.016822 0.003346 0.012848 -0.995185 0.098018 0.000000 0.218750 0.500000
-0.017152 0.000000 0.012848 -0.995185 0.098018 0.000000 0.250000 0.500000
-0.016822 0.003346 0.047152 -0.956940 0.290286 0.000000 0.218750 1.000000
-0.015846 0.006564 0.012848 -0.956940 0.290286 0.000000 0.187500 0.500000
-0.016822 0.003346 0.012848 -0.956940 0.290286 0.000000 0.218750 0.500000
-0.015846 0.006564 0.047152 -0.881921 0.471398 0.000000 0.187500 1.000000
-0.014261 0.009529 0.012848 -0.881921 0.471398 0.000000 0.156250 0.500000
-0.015846 0.006564 0.012848 -0.881921 0.471398 0.000000 0.187500 0.500000
-0.014261 0.009529 0.047152 -0.773010 0.634394 0.000000 0.156250 1.000000
-0.012128 0.012128 0.012848 -0.773010 0.634394 0.000000 0.125000 0.500000
-0.014261 0.009529 0.012848 -0.773010 0.634394 0.000000 0.156250 0.500000
-0.012128 0.012128 0.047152 -0.634392 0.773011 0.000000 0.125000 1.000000
-0.009529 0.014261 0.012848 -0.634392 0.773011 0.000000 0.093750 0.500000
-0.012128 0.012128 0.012848 -0.634392 0.773011 0.000000 0.125000 0.500000
-0.009529 0.014261 0.047152 -0.471396 0.881922 0.000000 0.093750 1.000000
-0.006564 0.015846 0.012848 -0.471396 0.881922 0.000000 0.062500 0.500000
-0.009529 0.014261 0.012848 -0.471396 0.881922 0.000000 0.093750 0.500000
-0.015846 0.006564 0.047152 0.000000 0.000000 1.000000 0.028269 0.341844
-0.006564 -0.015846 0.047152 0.000000 0.000000 1.000000 0.158156 0.028269
0.015846 -0.006564 0.047152 0.000000 0.000000 1.000000 0.471731 0.158156
-0.006564 0.015846 0.047152 -0.290283 0.956941 0.000000 0.062500 1.000000
-0.003346 0.016822 0.012848 -0.290283 0.956941 0.000000 0.031250 0.500000
-0.006564 0.015846 0.012848 -0.290283 0.956941 0.000000 0.062500 0.500000
-0.003346 0.016822 0.047152 -0.098017 0.995185 0.000000 0.031250 1.000000
0.000000 0.017152 0.012848 -0.098017 0.995185 0.000000 0.000000 0.500000
-0.003346 0.016822 0.012848 -0.098017 0.995185 0.000000 0.031250 0.500000
0.016822 0.003346 0.012848 0.000000 0.000000 -1.000000 0.985388 0.296822
0.003346 -0.016822 0.012848 0.000000 0.000000 -1.000000 0.796822 0.014612
-0.016822 -0.003346 0.012848 0.000000 0.000000 -1.000000 0.514611 0.203179
0.003346 0.016822 0.047152 0.098017 0.995185 -0.000000 0.968750 1.000000
0.006564 0.015846 0.047152 0.290285 0.956940 -0.000000 0.937500 1.000000
0.009529 0.014261 0.047152 0.471397 0.881921 -0.000000 0.906250 1.000000
0.012128 0.012128 0.047152 0.634393 0.773010 -0.000000 0.875000 1.000000
0.014261 0.009529 0.047152 0.773010 0.634393 -0.000000 0.843750 1.000000
0.015846 0.006564 0.047152 0.881921 0.471396 -0.000000 0.812500 1.000000
0.016822 0.003346 0.047152 0.956940 0.290285 -0.000000 0.781250 1.000000
0.017152 0.000000 0.047152 0.995185 0.098017 -0.000000 0.750000 1.000000
0.016822 -0.003346 0.047152 0.995185 -0.098017 0.000000 0.718750 1.000000
0.015846 -0.006564 0.047152 0.956940 -0.290285 0.000000 0.687500 1.000000
0.014261 -0.009529 0.047152 0.881921 -0.471397 0.000000 0.656250 1.000000
0.012128 -0.012128 0.047152 0.773010 -0.634393 0.000000 0.625000 1.000000
0.009529 -0.014261 0.047152 0.634393 -0.773010 0.000000 0.593750 1.000000
0.006564 -0.015846 0.047152 0.471397 -0.881921 0.000000 0.562500 1.000000
0.003346 -0.016822 0.047152 0.290285 -0.956940 0.000000 0.531250 1.000000
-0.000000 -0.017152 0.047152 0.098017 -0.995185 0.000000 0.500000 1.000000
-0.003346 -0.016822 0.047152 -0.098017 -0.995185 0.000000 0.468750 1.000000
-0.006564 -0.015846 0.047152 -0.290285 -0.956940 0.000000 0.437500 1.000000
-0.009529 -0.014261 0.047152 -0.471397 -0.881921 0.000000 0.406250 1.000000
-0.012128 -0.012128 0.047152 -0.634394 -0.773010 0.000000 0.375000 1.000000
-0.014261 -0.009529 0.047152 -0.773011 -0.634393 0.000000 0.343750 1.000000
-0.015846 -0.006564 0.047152 -0.881922 -0.471396 0.000000 0.312500 1.000000
-0.016822 -0.003346 0.047152 -0.956941 -0.290284 0.000000 0.281250 1.000000
-0.017152 0.000000 0.047152 -0.995185 -0.098016 0.000000 0.250000 1.000000
-0.016822 0.003346 0.047152 -0.995185 0.098018 0.000000 0.218750 1.000000
-0.015846 0.006564 0.047152 -0.956940 0.290286 0.000000 0.187500 1.000000
-0.014261 0.009529 0.047152 -0.881921 0.471398 0.000000 0.156250 1.000000
-0.012128 0.012128 0.047152 -0.773010 0.634394 0.000000 0.125000 1.000000
-0.009529 0.014261 0.047152 -0.634392 0.773011 0.000000 0.093750 1.000000
-0.006564 0.015846 0.047152 -0.471396 0.881922 0.000000 0.062500 1.000000
0.006564 0.015846 0.047152 0.000000 0.000000 1.000000 0.341844 0.471731
0.003346 0.016822 0.047152 0.000000 0.000000 1.000000 0.296822 0.485388
0.000000 0.017152 0.047152 0.000000 0.000000 1.000000 0.250000 0.490000
-0.003346 0.016822 0.047152 0.000000 -0.000000 1.000000 0.203179 0.485389
-0.006564 0.015846 0.047152 0.000000 -0.000000 1.000000 0.158156 0.471731
-0.009529 0.014261 0.047152 0.000000 0.000000 1.000000 0.116663 0.449553
-0.012128 0.012128 0.047152 0.000000 0.000000 1.000000 0.080295 0.419706
-0.014261 0.009529 0.047152 0.000000 0.000000 1.000000 0.050447 0.383337
-0.016822 0.003346 0.047152 0.000000 0.000000 1.000000 0.014612 0.296822
-0.017152 0.000000 0.047152 0.000000 0.000000 1.000000 0.010000 0.250000
-0.016822 -0.003346 0.047152 0.000000 0.000000 1.000000 0.014611 0.203179
-0.015846 -0.006564 0.047152 0.000000 0.000000 1.000000 0.028269 0.158156
-0.014261 -0.009529 0.047152 0.000000 0.000000 1.000000 0.050447 0.116663
-0.012128 -0.012128 0.047152 0.000000 0.000000 1.000000 0.080294 0.080294
-0.009529 -0.014261 0.047152 0.000000 0.000000 1.000000 0.116663 0.050447
-0.003346 -0.016822 0.047152 0.000000 0.000000 1.000000 0.203178 0.014612
-0.000000 -0.017152 0.047152 0.000000 0.000000 1.000000 0.250000 0.010000
0.003346 -0.016822 0.047152 0.000000 0.000000 1.000000 0.296822 0.014612
0.006564 -0.015846 0.047152 0.000000 0.000000 1.000000 0.341844 0.028269
0.009529 -0.014261 0.047152 0.000000 0.000000 1.000000 0.383337 0.050447
0.012128 -0.012128 0.047152 0.000000 0.000000 1.000000 0.419706 0.080294
0.014261 -0.009529 0.047152 0.000000 0.000000 1.000000 0.449553 0.116663
0.016822 -0.003346 0.047152 0.000000 0.000000 1.000000 0.485388 0.203178
0.017152 0.000000 0.047152 0.000000 0.000000 1.000000 0.490000 0.250000
0.016822 0.003346 0.047152 -0.000000 0.000000 1.000000 0.485388 0.296822
0.015846 0.006564 0.047152 -0.000000 -0.000000 1.000000 0.471731 0.341844
0.014261 0.009529 0.047152 0.000000 0.000000 1.000000 0.449553 0.383337
0.012128 0.012128 0.047152 0.000000 0.000000 1.000000 0.419706 0.419706
0.009529 0.014261 0.047152 0.000000 0.000000 1.000000 0.383337 0.449553
-0.003346 0.016822 0.047152 -0.290283 0.956941 0.000000 0.031250 1.000000
0.000000 0.017152 0.047152 -0.098017 0.995185 0.000000 0.000000 1.000000
-0.003346 0.016822 0.012848 -0.000000 0.000000 -1.000000 0.703179 0.485389
0.000000 0.017152 0.012848 -0.000000 0.000000 -1.000000 0.750000 0.490000
0.003346 0.016822 0.012848 -0.000000 0.000000 -1.000000 0.796822 0.485388
0.006564 0.015846 0.012848 0.000000 0.000000 -1.000000 0.841844 0.471731
0.009529 0.014261 0.012848 0.000000 0.000000 -1.000000 0.883337 0.449553
0.012128 0.012128 0.012848 0.000000 0.000000 -1.000000 0.919706 0.419706
0.014261 0.009529 0.012848 0.000000 0.000000 -1.000000 0.949553 0.383337
0.015846 0.006564 0.012848 0.000000 0.000000 -1.000000 0.971731 0.341844
0.017152 0.000000 0.012848 0.000000 0.000000 -1.000000 0.990000 0.250000
0.016822 -0.003346 0.012848 0.000000 0.000000 -1.000000 0.985388 0.203178
0.015846 -0.006564 0.012848 0.000000 -0.000000 -1.000000 0.971731 0.158156
0.014261 -0.009529 0.012848 0.000000 -0.000000 -1.000000 0.949553 0.116663
0.012128 -0.012128 0.012848 0.000000 0.000000 -1.000000 0.919706 0.080294
0.009529 -0.014261 0.012848 0.000000 0.000000 -1.000000 0.883337 0.050447
0.006564 -0.015846 0.012848 0.000000 0.000000 -1.000000 0.841844 0.028269
-0.000000 -0.017152 0.012848 0.000000 0.000000 -1.000000 0.750000 0.010000
-0.003346 -0.016822 0.012848 0.000000 0.000000 -1.000000 0.703178 0.014612
-0.006564 -0.015846 0.012848 0.000000 0.000000 -1.000000 0.658156 0.028269
-0.009529 -0.014261 0.012848 0.000000 0.000000 -1.000000 0.616663 0.050447
-0.012128 -0.012128 0.012848 0.000000 0.000000 -1.000000 0.580294 0.080294
-0.014261 -0.009529 0.012848 0.000000 0.000000 -1.000000 0.550447 0.116663
-0.015846 -0.006564 0.012848 0.000000 0.000000 -1.000000 0.528269 0.158156
-0.017152 0.000000 0.012848 0.000000 -0.000000 -1.000000 0.510000 0.250000
-0.016822 0.003346 0.012848 0.000000 -0.000000 -1.000000 0.514612 0.296822
-0.015846 0.006564 0.012848 0.000000 0.000000 -1.000000 0.528269 0.341844
-0.014261 0.009529 0.012848 0.000000 0.000000 -1.000000 0.550447 0.383337
-0.012128 0.012128 0.012848 0.000000 0.000000 -1.000000 0.580295 0.419706
-0.009529 0.014261 0.012848 0.000000 0.000000 -1.000000 0.616663 0.449553
-0.006564 0.015846 0.012848 0.000000 0.000000 -1.000000 0.658156 0.471731
4 0 1 2 3
4 4 5 6 7
4 8 9 10 11
4 12 13 14 15
4 16 17 18 19
4 20 21 22 23
3 24 25 26
3 27 28 29
3 30 31 32
3 33 34 35
3 36 37 38
3 39 40 41
3 42 43 44
3 45 46 47
3 48 49 50
3 51 52 53
3 54 55 56
3 57 58 59
3 60 61 62
3 63 64 65
3 66 67 68
3 69 70 71
3 72 73 74
3 75 76 77
3 78 79 80
3 81 82 83
3 84 85 86
3 87 88 89
3 90 91 92
3 93 94 95
3 96 97 98
3 99 100 101
3 102 103 104
3 105 106 107
3 108 109 110
3 111 112 113
3 114 115 116
3 117 118 119
3 120 121 122
3 123 124 125
3 24 126 25
3 27 127 28
3 30 128 31
3 33 129 34
3 36 130 37
3 39 131 40
3 42 132 43
3 45 133 46
3 48 134 49
3 51 135 52
3 54 136 55
3 57 137 58
3 60 138 61
3 63 139 64
3 66 140 67
3 69 141 70
3 72 142 73
3 75 143 76
3 78 144 79
3 81 145 82
3 84 146 85
3 87 147 88
3 90 148 91
3 93 149 94
3 96 150 97
3 99 151 100
3 102 152 103
3 105 153 106
3 108 154 109
3 111 155 112
3 156 157 158
3 158 159 156
3 159 160 156
3 160 161 162
3 162 163 114
3 114 164 165
3 165 166 114
3 166 167 114
3 167 168 115
3 168 169 115
3 169 170 115
3 115 171 172
3 172 173 174
3 174 175 176
3 176 177 116
3 116 178 179
3 179 180 116
3 180 181 116
3 181 182 183
3 183 184 156
3 160 162 156
3 162 114 156
3 115 172 116
3 172 174 116
3 174 176 116
3 181 183 116
3 183 156 116
3 114 167 115
3 156 114 116
3 117 185 118
3 120 186 121
3 187 188 189
3 189 190 191
3 191 192 193
3 193 194 191
3 194 123 191
3 123 195 196
3 196 197 123
3 197 198 123
3 198 199 124
3 199 200 124
3 200 201 124
3 124 202 203
3 203 204 205
3 205 206 207
3 207 208 125
3 125 209 210
3 210 211 212
3 212 213 187
3 213 214 187
3 214 215 187
3 187 189 191
3 124 203 125
3 203 205 125
3 205 207 125
3 125 210 187
3 210 212 187
3 187 191 123
3 123 198 124
3 187 123 125
