ply
format ascii 1.0
comment Created by Blender 2.83.3 - www.blender.org, source file: 'tableply.blend'
element vertex 120
property float x
property float y
property float z
property float nx
property float ny
property float nz
property float s
property float t
element face 60
property list uchar uint vertex_indices
end_header
-0.600000 -0.300000 0.015000 -1.000000 0.000000 0.000000 0.625000 0.000000
-0.600000 0.300000 -0.015000 -1.000000 0.000000 0.000000 0.375000 0.250000
-0.600000 -0.300000 -0.015000 -1.000000 0.000000 0.000000 0.375000 0.000000
-0.600000 0.300000 0.015000 0.000000 1.000000 -0.000000 0.625000 0.250000
0.600000 0.300000 -0.015000 0.000000 1.000000 -0.000000 0.375000 0.500000
-0.600000 0.300000 -0.015000 0.000000 1.000000 -0.000000 0.375000 0.250000
0.600000 0.300000 0.015000 1.000000 0.000000 -0.000000 0.625000 0.500000
0.600000 -0.300000 -0.015000 1.000000 0.000000 -0.000000 0.375000 0.750000
0.600000 0.300000 -0.015000 1.000000 0.000000 -0.000000 0.375000 0.500000
0.600000 -0.300000 0.015000 0.000000 -1.000000 0.000000 0.625000 0.750000
-0.600000 -0.300000 -0.015000 0.000000 -1.000000 0.000000 0.375000 1.000000
0.600000 -0.300000 -0.015000 0.000000 -1.000000 0.000000 0.375000 0.750000
0.600000 0.300000 -0.015000 0.000000 0.000000 -1.000000 0.375000 0.500000
-0.600000 -0.300000 -0.015000 0.000000 0.000000 -1.000000 0.125000 0.750000
-0.600000 0.300000 -0.015000 0.000000 0.000000 -1.000000 0.125000 0.500000
-0.600000 0.300000 0.015000 0.000000 0.000000 1.000000 0.875000 0.500000
0.600000 -0.300000 0.015000 0.000000 0.000000 1.000000 0.625000 0.750000
0.600000 0.300000 0.015000 0.000000 0.000000 1.000000 0.625000 0.500000
0.509976 -0.296562 0.011286 -1.000000 0.000000 0.000000 0.625000 0.000000
0.509976 -0.236562 -0.231532 -1.000000 0.000000 0.000000 0.375000 0.250000
0.509976 -0.296562 -0.231532 -1.000000 0.000000 0.000000 0.375000 0.000000
0.509976 -0.236562 0.011286 0.000000 1.000000 -0.000000 0.625000 0.250000
0.595690 -0.236562 -0.231532 0.000000 1.000000 -0.000000 0.375000 0.500000
0.509976 -0.236562 -0.231532 0.000000 1.000000 -0.000000 0.375000 0.250000
0.595690 -0.236562 0.011286 1.000000 0.000000 -0.000000 0.625000 0.500000
0.595690 -0.296562 -0.231532 1.000000 0.000000 -0.000000 0.375000 0.750000
0.595690 -0.236562 -0.231532 1.000000 0.000000 -0.000000 0.375000 0.500000
0.595690 -0.296562 0.011286 0.000000 -1.000000 0.000000 0.625000 0.750000
0.509976 -0.296562 -0.231532 0.000000 -1.000000 0.000000 0.375000 1.000000
0.595690 -0.296562 -0.231532 0.000000 -1.000000 0.000000 0.375000 0.750000
0.595690 -0.236562 -0.231532 0.000000 0.000000 -1.000000 0.375000 0.500000
0.509976 -0.296562 -0.231532 0.000000 0.000000 -1.000000 0.125000 0.750000
0.509976 -0.236562 -0.231532 0.000000 0.000000 -1.000000 0.125000 0.500000
0.509976 -0.236562 0.011286 0.000000 0.000000 1.000000 0.875000 0.500000
0.595690 -0.296562 0.011286 0.000000 0.000000 1.000000 0.625000 0.750000
0.595690 -0.236562 0.011286 0.000000 0.000000 1.000000 0.625000 0.500000
0.509976 0.236314 0.011286 -1.000000 0.000000 0.000000 0.625000 0.000000
0.509976 0.296314 -0.231532 -1.000000 0.000000 0.000000 0.375000 0.250000
0.509976 0.236314 -0.231532 -1.000000 0.000000 0.000000 0.375000 0.000000
0.509976 0.296314 0.011286 0.000000 1.000000 -0.000000 0.625000 0.250000
0.595690 0.296314 -0.231532 0.000000 1.000000 -0.000000 0.375000 0.500000
0.509976 0.296314 -0.231532 0.000000 1.000000 -0.000000 0.375000 0.250000
0.595690 0.296314 0.011286 1.000000 0.000000 -0.000000 0.625000 0.500000
0.595690 0.236314 -0.231532 1.000000 0.000000 -0.000000 0.375000 0.750000
0.595690 0.296314 -0.231532 1.000000 0.000000 -0.000000 0.375000 0.500000
0.595690 0.236314 0.011286 0.000000 -1.000000 0.000000 0.625000 0.750000
0.509976 0.236314 -0.231532 0.000000 -1.000000 0.000000 0.375000 1.000000
0.595690 0.236314 -0.231532 0.000000 -1.000000 0.000000 0.375000 0.750000
0.595690 0.296314 -0.231532 0.000000 0.000000 -1.000000 0.375000 0.500000
0.509976 0.236314 -0.231532 0.000000 0.000000 -1.000000 0.125000 0.750000
0.509976 0.296314 -0.231532 0.000000 0.000000 -1.000000 0.125000 0.500000
0.509976 0.296314 0.011286 0.000000 0.000000 1.000000 0.875000 0.500000
0.595690 0.236314 0.011286 0.000000 0.000000 1.000000 0.625000 0.750000
0.595690 0.296314 0.011286 0.000000 0.000000 1.000000 0.625000 0.500000
-0.590955 0.236314 0.011286 -1.000000 0.000000 0.000000 0.625000 0.000000
-0.590955 0.296314 -0.231532 -1.000000 0.000000 0.000000 0.375000 0.250000
-0.590955 0.236314 -0.231532 -1.000000 0.000000 0.000000 0.375000 0.000000
-0.590955 0.296314 0.011286 0.000000 1.000000 -0.000000 0.625000 0.250000
-0.505240 0.296314 -0.231532 0.000000 1.000000 -0.000000 0.375000 0.500000
-0.590955 0.296314 -0.231532 0.000000 1.000000 -0.000000 0.375000 0.250000
-0.505240 0.296314 0.011286 1.000000 0.000000 -0.000000 0.625000 0.500000
-0.505240 0.236314 -0.231532 1.000000 0.000000 -0.000000 0.375000 0.750000
-0.505240 0.296314 -0.231532 1.000000 0.000000 -0.000000 0.375000 0.500000
-0.505240 0.236314 0.011286 0.000000 -1.000000 0.000000 0.625000 0.750000
-0.590955 0.236314 -0.231532 0.000000 -1.000000 0.000000 0.375000 1.000000
-0.505240 0.236314 -0.231532 0.000000 -1.000000 0.000000 0.375000 0.750000
-0.505240 0.296314 -0.231532 0.000000 0.000000 -1.000000 0.375000 0.500000
-0.590955 0.236314 -0.231532 0.000000 0.000000 -1.000000 0.125000 0.750000
-0.590955 0.296314 -0.231532 0.000000 0.000000 -1.000000 0.125000 0.500000
-0.590955 0.296314 0.011286 0.000000 0.000000 1.000000 0.875000 0.500000
-0.505240 0.236314 0.011286 0.000000 0.000000 1.000000 0.625000 0.750000
-0.505240 0.296314 0.011286 0.000000 0.000000 1.000000 0.625000 0.500000
-0.590955 -0.296006 0.011286 -1.000000 0.000000 0.000000 0.625000 0.000000
-0.590955 -0.236006 -0.231532 -1.000000 0.000000 0.000000 0.375000 0.250000
-0.590955 -0.296006 -0.231532 -1.000000 0.000000 0.000000 0.375000 0.000000
-0.590955 -0.236006 0.011286 0.000000 1.000000 -0.000000 0.625000 0.250000
-0.505240 -0.236006 -0.231532 0.000000 1.000000 -0.000000 0.375000 0.500000
-0.590955 -0.236006 -0.231532 0.000000 1.000000 -0.000000 0.375000 0.250000
-0.505240 -0.236006 0.011286 1.000000 0.000000 -0.000000 0.625000 0.500000
-0.505240 -0.296006 -0.231532 1.000000 0.000000 -0.000000 0.375000 0.750000
-0.505240 -0.236006 -0.231532 1.000000 0.000000 -0.000000 0.375000 0.500000
-0.505240 -0.296006 0.011286 0.000000 -1.000000 0.000000 0.625000 0.750000
-0.590955 -0.296006 -0.231532 0.000000 -1.000000 0.000000 0.375000 1.000000
-0.505240 -0.296006 -0.231532 0.000000 -1.000000 0.000000 0.375000 0.750000
-0.505240 -0.236006 -0.231532 0.000000 0.000000 -1.000000 0.375000 0.500000
-0.590955 -0.296006 -0.231532 0.000000 0.000000 -1.000000 0.125000 0.750000
-0.590955 -0.236006 -0.231532 0.000000 0.000000 -1.000000 0.125000 0.500000
-0.590955 -0.236006 0.011286 0.000000 0.000000 1.000000 0.875000 0.500000
-0.505240 -0.296006 0.011286 0.000000 0.000000 1.000000 0.625000 0.750000
-0.505240 -0.236006 0.011286 0.000000 0.000000 1.000000 0.625000 0.500000
-0.600000 0.300000 0.015000 -1.000000 0.000000 0.000000 0.625000 0.250000
0.600000 0.300000 0.015000 0.000000 1.000000 -0.000000 0.625000 0.500000
0.600000 -0.300000 0.015000 1.000000 0.000000 0.000000 0.625000 0.750000
-0.600000 -0.300000 0.015000 0.000000 -1.000000 0.000000 0.625000 1.000000
0.600000 -0.300000 -0.015000 0.000000 0.000000 -1.000000 0.375000 0.750000
-0.600000 -0.300000 0.015000 0.000000 -0.000000 1.000000 0.875000 0.750000
0.509976 -0.236562 0.011286 -1.000000 0.000000 0.000000 0.625000 0.250000
0.595690 -0.236562 0.011286 0.000000 1.000000 -0.000000 0.625000 0.500000
0.595690 -0.296562 0.011286 1.000000 0.000000 0.000000 0.625000 0.750000
0.509976 -0.296562 0.011286 0.000000 -1.000000 0.000000 0.625000 1.000000
0.595690 -0.296562 -0.231532 0.000000 0.000000 -1.000000 0.375000 0.750000
0.509976 -0.296562 0.011286 0.000000 -0.000000 1.000000 0.875000 0.750000
0.509976 0.296314 0.011286 -1.000000 0.000000 0.000000 0.625000 0.250000
0.595690 0.296314 0.011286 0.000000 1.000000 -0.000000 0.625000 0.500000
0.595690 0.236314 0.011286 1.000000 0.000000 0.000000 0.625000 0.750000
0.509976 0.236314 0.011286 0.000000 -1.000000 0.000000 0.625000 1.000000
0.595690 0.236314 -0.231532 0.000000 0.000000 -1.000000 0.375000 0.750000
0.509976 0.236314 0.011286 0.000000 -0.000000 1.000000 0.875000 0.750000
-0.590955 0.296314 0.011286 -1.000000 0.000000 0.000000 0.625000 0.250000
-0.505240 0.296314 0.011286 0.000000 1.000000 -0.000000 0.625000 0.500000
-0.505240 0.236314 0.011286 1.000000 0.000000 0.000000 0.625000 0.750000
-0.590955 0.236314 0.011286 0.000000 -1.000000 0.000000 0.625000 1.000000
-0.505240 0.236314 -0.231532 0.000000 0.000000 -1.000000 0.375000 0.750000
-0.590955 0.236314 0.011286 0.000000 -0.000000 1.000000 0.875000 0.750000
-0.590955 -0.236006 0.011286 -1.000000 0.000000 0.000000 0.625000 0.250000
-0.505240 -0.236006 0.011286 0.000000 1.000000 -0.000000 0.625000 0.500000
-0.505240 -0.296006 0.011286 1.000000 0.000000 0.000000 0.625000 0.750000
-0.590955 -0.296006 0.011286 0.000000 -1.000000 0.000000 0.625000 1.000000
-0.505240 -0.296006 -0.231532 0.000000 0.000000 -1.000000 0.375000 0.750000
-0.590955 -0.296006 0.011286 0.000000 -0.000000 1.000000 0.875000 0.750000
3 0 1 2
3 3 4 5
3 6 7 8
3 9 10 11
3 12 13 14
3 15 16 17
3 18 19 20
3 21 22 23
3 24 25 26
3 27 28 29
3 30 31 32
3 33 34 35
3 36 37 38
3 39 40 41
3 42 43 44
3 45 46 47
3 48 49 50
3 51 52 53
3 54 55 56
3 57 58 59
3 60 61 62
3 63 64 65
3 66 67 68
3 69 70 71
3 72 73 74
3 75 76 77
3 78 79 80
3 81 82 83
3 84 85 86
3 87 88 89
3 0 90 1
3 3 91 4
3 6 92 7
3 9 93 10
3 12 94 13
3 15 95 16
3 18 96 19
3 21 97 22
3 24 98 25
3 27 99 28
3 30 100 31
3 33 101 34
3 36 102 37
3 39 103 40
3 42 104 43
3 45 105 46
3 48 106 49
3 51 107 52
3 54 108 55
3 57 109 58
3 60 110 61
3 63 111 64
3 66 112 67
3 69 113 70
3 72 114 73
3 75 115 76
3 78 116 79
3 81 117 82
3 84 118 85
3 87 119 88
